<?xml version="1.0" encoding="utf-8"?>
<!-- Generator: Adobe Illustrator 25.1.0, SVG Export Plug-In . SVG Version: 6.00 Build 0)  -->
<svg version="1.1" id="Layer_1" xmlns="http://www.w3.org/2000/svg" xmlns:xlink="http://www.w3.org/1999/xlink" x="0px" y="0px"
	 viewBox="0 0 24 24" style="enable-background:new 0 0 24 24;" xml:space="preserve">
<style type="text/css">
	.st0{fill:#666666;}
</style>
<path class="st0" d="M17,22H5c-1.7,0-3-1.3-3-3V7c0-1.7,1.3-3,3-3h4c0.6,0,1,0.4,1,1S9.6,6,9,6H5C4.4,6,4,6.4,4,7v12
	c0,0.6,0.4,1,1,1h12c0.6,0,1-0.4,1-1v-4c0-0.6,0.4-1,1-1s1,0.4,1,1v4C20,20.7,18.7,22,17,22z"/>
<path class="st0" d="M14.6,5.9l-4.9,5c-0.1,0.1-0.1,0.1-0.1,0.2l-1,3.8c0,0.2,0,0.4,0.1,0.5c0.1,0.1,0.2,0.1,0.3,0.1
	c0,0,0.1,0,0.1,0l3.8-1c0.1,0,0.2-0.1,0.2-0.1l4.9-5L14.6,5.9z"/>
<path class="st0" d="M21,4.4L19.5,3C19,2.4,18,2.4,17.4,3L16,4.4L19.5,8L21,6.6C21.6,6,21.6,5,21,4.4z"/>
</svg>
